<?xml version="1.0" encoding="utf-8"?><svg viewBox="0 0 800 800" xmlns="http://www.w3.org/2000/svg" xmlns:xlink="http://www.w3.org/1999/xlink"><style>:root>svg{display:none}:root>svg:target{display:block}</style><svg viewBox="0 0 498.92 498.92" id="analytics" xmlns="http://www.w3.org/2000/svg"><path d="M73.46 256c13.232 0 24-10.768 24-24 0-6.52-2.632-12.432-6.872-16.76l32.784-72.12c1.96.52 3.976.88 6.088.88 4.016 0 7.744-1.08 11.072-2.832l45.328 38.856c-.216 1.296-.4 2.616-.4 3.976 0 13.232 10.768 24 24 24s24-10.768 24-24c0-3.912-1.032-7.56-2.696-10.824l56.96-63.288c2.984 1.336 6.264 2.112 9.736 2.112 13.232 0 24-10.768 24-24s-10.768-24-24-24-24 10.768-24 24c0 3.912 1.032 7.552 2.696 10.824l-56.96 63.288c-2.976-1.336-6.264-2.112-9.736-2.112-5.952 0-11.336 2.256-15.536 5.864l-42.432-36.376A23.88 23.88 0 00153.46 120c0-13.232-10.768-24-24-24s-24 10.768-24 24c0 5.2 1.704 9.984 4.52 13.92l-33.8 74.36c-.904-.112-1.784-.28-2.72-.28-13.232 0-24 10.768-24 24s10.768 24 24 24zm224-176c4.408 0 8 3.584 8 8s-3.592 8-8 8c-4.408 0-8-3.584-8-8s3.592-8 8-8zm-88 96c4.408 0 8 3.584 8 8s-3.592 8-8 8-8-3.584-8-8 3.592-8 8-8zm-80-64c4.408 0 8 3.584 8 8s-3.592 8-8 8-8-3.584-8-8 3.592-8 8-8zm-56 112c4.408 0 8 3.584 8 8s-3.592 8-8 8-8-3.584-8-8 3.592-8 8-8zm232 16h16v16h-16zm-80 0h64v16h-64z"/><path d="M235.676 336l-6.4-16H369.46v-48h-16V48h16V0h-368v48h16v224h-16v48h140.28L74.012 493.088l14.896 5.832L158.916 320h18.544v176h16V320h18.584l13.416 33.544V496h272V336H235.676zM17.46 16h336v16h-336V16zm320 32v224h-304V48h304zm-320 256v-16h336v16h-336zm416 48h16v32h-16v-32zm-48 128h-144V352h144v128zm96 0h-80V352h16v48h48v-48h16v128z"/><path d="M353.46 448h16v16h-16zm-32 0h16v16h-16zm32-32h16v16h-16z"/></svg><svg viewBox="0 0 24 24" id="check-icon" xmlns="http://www.w3.org/2000/svg"><path d="M9 11l3 3L22 4m-6-1H7.8c-1.68 0-2.52 0-3.162.327a3 3 0 00-1.311 1.311C3 5.28 3 6.12 3 7.8v8.4c0 1.68 0 2.52.327 3.162a3 3 0 001.311 1.311C5.28 21 6.12 21 7.8 21h8.4c1.68 0 2.52 0 3.162-.327a3 3 0 001.311-1.311C21 18.72 21 17.88 21 16.2V12"/></svg><svg viewBox="0 0 192 192" id="docs-icon" xmlns="http://www.w3.org/2000/svg"><path d="M68 89h56m-56 24h56m-56 24h36"/><path fill-rule="evenodd" d="M52 28a2 2 0 00-2 2v132a2 2 0 002 2h88a2 2 0 002-2V62h-28a6 6 0 01-6-6V28H52zm68 8.485L133.515 50H120V36.485zM38 30c0-7.732 6.268-14 14-14h62c1.591 0 3.117.632 4.243 1.757l34 34A6 6 0 01154 56v106c0 7.732-6.268 14-14 14H52c-7.732 0-14-6.268-14-14V30z" clip-rule="evenodd"/></svg><svg viewBox="0 0 502.664 502.664" id="icon" xmlns="http://www.w3.org/2000/svg"><path d="M153.821 358.226L0 274.337v-46.463l153.821-83.414v54.574L46.636 250.523l107.185 53.431v54.272zm26.273 29.358L282.103 115.08h32.227L212.084 387.584h-31.99zm168.749-29.358v-54.272l107.164-52.999-107.164-52.59v-53.927l153.821 83.522v46.183l-153.821 84.083z"/></svg><svg viewBox="0 0 512 512" id="play-icon" xmlns="http://www.w3.org/2000/svg"><path d="M256 0C114.625 0 0 114.625 0 256c0 141.374 114.625 256 256 256 141.374 0 256-114.626 256-256C512 114.625 397.374 0 256 0zm95.062 258.898l-144 85.945a3.323 3.323 0 01-3.406.031 3.379 3.379 0 01-1.687-2.937V170.045c0-1.218.656-2.343 1.687-2.938a3.403 3.403 0 013.406.031l144 85.962c1.031.586 1.641 1.718 1.641 2.89 0 1.197-.609 2.307-1.641 2.908z"/></svg></svg>